<svg width="62" height="55" viewBox="0 0 62 55" fill="none" xmlns="http://www.w3.org/2000/svg">
<path d="M41.5873 5.92374C36.365 11.1461 35.9282 16.841 37.5808 20.5885C37.7344 20.9343 37.7076 21.3586 37.368 21.659L9.8881 46.0768C7.56246 48.1434 7.66924 50.6027 9.94459 52.8781C12.2199 55.1541 14.6785 55.2595 16.7445 52.9346L41.1637 25.4533C41.4654 25.1151 41.8877 25.0889 42.2349 25.2411C45.9816 26.8924 51.6759 26.4556 56.8989 21.234C62.4168 15.7168 63.7504 7.66177 59.4553 3.36596C55.1588 -0.929172 47.1052 0.406554 41.5873 5.92374Z" fill="#EDEDFB"/>
<path d="M20.2616 24.9367C20.5784 24.7307 20.9759 24.7156 21.277 25.0545L25.1464 29.4033L29.6723 25.3824L25.0603 21.2788C24.722 20.977 24.7365 20.5796 24.9432 20.2634C27.3838 16.518 26.077 12.6114 22.5762 9.67124L11.3469 0.464448C10.6125 -0.132806 9.87817 -0.176204 9.23821 0.463759C8.59618 1.10579 8.59756 1.93382 9.23752 2.57378L18.5304 11.8646C19.2069 12.5425 19.2069 13.4146 18.5304 14.0911L18.4795 14.1427C17.803 14.8185 16.9295 14.8185 16.2523 14.1427L6.96079 4.85051C6.32014 4.21054 5.49211 4.20985 4.85077 4.8512C4.20943 5.49254 4.21012 6.32056 4.85146 6.95984L14.1423 16.2527C14.8202 16.9299 14.8202 17.8027 14.1423 18.4785L14.0927 18.5302C13.4162 19.2059 12.5427 19.2059 11.8656 18.5295L2.57335 9.23725C1.9327 8.59729 1.10467 8.59591 0.464022 9.23725C-0.176631 9.87791 -0.132543 10.6116 0.464711 11.3459L9.67151 22.5752C12.6123 26.0768 16.5162 27.3781 20.2616 24.9367Z" fill="#EDEDFB"/>
<path d="M52.9363 46.0819L37.8644 32.6709L32.9617 38.1881L46.0826 52.9348C48.1479 55.2598 50.6051 55.1509 52.8791 52.8769C55.1537 50.6064 55.2598 48.1478 52.9363 46.0819Z" fill="#EDEDFB"/>
</svg>
