<?xml version="1.0" encoding="UTF-8"?>
<svg xmlns="http://www.w3.org/2000/svg" xmlns:xlink="http://www.w3.org/1999/xlink" width="434.4" height="261.87956286016185" viewBox="0 0 199.14684556362948 120.05637398983299" class="css-1j8o68f">
    <g id="SvgjsG1015" featurekey="zdvuGz-0"  fill="#9896f1">

<path d="M8.96 12.42 c0.94 0.54 1.56 1.52 1.56 3.04 l0 0.84 c0 2.62 -1.38 3.7 -4.02 3.7 l-4.2 0 l-0.7 0 c-0.2 0 -0.3 -0.1 -0.3 -0.3 l0 -13.4 c0 -0.2 0.1 -0.3 0.3 -0.3 l1.14 0 l3.72 0 c2.4 0 3.5 1.12 3.5 3.66 c0 1.26 -0.38 2.16 -1 2.76 z M8.22 9.66 c0 -1.7 -0.4 -2.08 -1.76 -2.08 l-3.42 0 l0 4.28 l3.42 0 c1.36 0 1.76 -0.5 1.76 -2.2 z M8.78 16.3 l0 -0.84 c0 -1.78 -0.68 -2.16 -2.28 -2.16 l-3.46 0 l0 5.12 l3.46 0 c1.6 0 2.28 -0.36 2.28 -2.12 z M29.0065 6 c0.22 0 0.36 0.12 0.36 0.34 l0 9.6 c0 2.68 -1.36 4.16 -4.02 4.16 l-1.7 0 c-2.66 0 -4.02 -1.48 -4.02 -4.16 l0 -9.6 c0 -0.22 0.12 -0.34 0.34 -0.34 l1.06 0 c0.22 0 0.34 0.12 0.34 0.34 l0 9.6 c0 1.78 0.72 2.58 2.28 2.58 l1.7 0 c1.56 0 2.28 -0.8 2.28 -2.58 l0 -9.6 c0 -0.22 0.12 -0.34 0.34 -0.34 l1.04 0 z M47.433 6 c0.2 0 0.32 0.1 0.2 0.3 l-4.18 8.08 l0 5.32 c0 0.2 -0.1 0.3 -0.3 0.3 l-1.14 0 c-0.2 0 -0.3 -0.1 -0.3 -0.3 l0 -5.32 l-4.18 -8.08 c-0.12 -0.2 0 -0.3 0.2 -0.3 l1.26 0 c0.2 0 0.3 0.1 0.4 0.3 l3.18 6.3 l3.18 -6.3 c0.1 -0.2 0.2 -0.3 0.4 -0.3 l1.28 0 z M81.04599999999999 6 c0.2 0 0.3 0.1 0.3 0.3 l0 13.4 c0 0.2 -0.1 0.3 -0.3 0.3 l-1.14 0 c-0.2 0 -0.3 -0.1 -0.3 -0.3 l0 -11.18 l-3.32 11.18 c-0.06 0.2 -0.2 0.3 -0.38 0.3 l-1.06 0 c-0.18 0 -0.32 -0.1 -0.38 -0.3 l-3.32 -11.18 l0 11.18 c0 0.2 -0.1 0.3 -0.3 0.3 l-1.14 0 c-0.2 0 -0.3 -0.1 -0.3 -0.3 l0 -13.4 c0 -0.2 0.1 -0.3 0.3 -0.3 l1.98 0 c0.2 0 0.34 0.1 0.4 0.3 l3.28 10.76 l3.32 -10.76 c0.06 -0.2 0.2 -0.3 0.4 -0.3 l1.96 0 z M96.3725 5.9 c2.64 0 4.02 1.5 4.02 4.16 l0 5.88 c0 2.66 -1.38 4.16 -4.02 4.16 l-1.7 0 c-2.64 0 -4.02 -1.5 -4.02 -4.16 l0 -5.88 c0 -2.66 1.38 -4.16 4.02 -4.16 l1.7 0 z M98.65249999999999 15.940000000000001 l0 -5.88 c0 -1.84 -0.68 -2.58 -2.28 -2.58 l-1.7 0 c-1.62 0 -2.28 0.74 -2.28 2.58 l0 5.88 c0 1.84 0.66 2.58 2.28 2.58 l1.7 0 c1.6 0 2.28 -0.74 2.28 -2.58 z M119.179 19.6 c0.1 0.24 -0.02 0.4 -0.28 0.4 l-1.12 0 c-0.18 0 -0.34 -0.08 -0.4 -0.26 l-2.02 -4.56 c-0.16 0.02 -0.32 0.02 -0.5 0.02 l-3.42 0 l0 4.5 c0 0.2 -0.1 0.3 -0.3 0.3 l-1.14 0 c-0.2 0 -0.3 -0.1 -0.3 -0.3 l0 -13.4 c0 -0.2 0.1 -0.3 0.3 -0.3 l1.14 0 l3.72 0 c2.6 0 3.96 1.4 3.96 4 l0 1.2 c0 1.74 -0.62 2.96 -1.82 3.56 z M111.43900000000001 13.620000000000001 l3.42 0 c1.56 0 2.22 -0.64 2.22 -2.42 l0 -1.2 c0 -1.78 -0.66 -2.42 -2.22 -2.42 l-3.42 0 l0 6.04 z M135.9855 7.58 l-6.02 0 l0 4.76 l4.6 0 c0.2 0 0.3 0.1 0.3 0.3 l0 0.98 c0 0.2 -0.1 0.3 -0.3 0.3 l-4.6 0 l0 4.5 l6.12 0 c0.2 0 0.3 0.1 0.3 0.3 l0 0.98 c0 0.2 -0.1 0.3 -0.3 0.3 l-7.56 0 c-0.2 0 -0.3 -0.1 -0.3 -0.3 l0 -13.4 c0 -0.2 0.1 -0.3 0.3 -0.3 l7.46 0 c0.2 0 0.3 0.1 0.3 0.3 l0 0.98 c0 0.2 -0.1 0.3 -0.3 0.3 z">
</path>
</g>
</svg>